<svg width="24" height="24" viewBox="0 0 24 24" fill="none" xmlns="http://www.w3.org/2000/svg">
<path d="M21.9979 15.9699L12.5679 12.8199L15.0479 10.4199L20.9079 12.3799L21.9979 15.9699Z" fill="#F4F4F4" stroke="#F4F4F4" stroke-width="0.5" stroke-linecap="round" stroke-linejoin="round"/>
<path d="M4.01758 20.31L11.4676 13.72L12.2976 17.06L7.67758 21.17L4.01758 20.31Z" fill="#F4F4F4" stroke="#F4F4F4" stroke-width="0.5" stroke-linecap="round" stroke-linejoin="round"/>
<path d="M9.07781 2.41992L11.0678 12.1699L7.74781 11.2199L6.50781 5.15992L9.07781 2.41992Z" fill="#F4F4F4" stroke="#F4F4F4" stroke-width="0.5" stroke-linecap="round" stroke-linejoin="round"/>
<path d="M16.1279 4.41992C16.1279 4.41992 14.7279 3.19992 13.6779 2.82992C12.7979 2.52992 11.9079 2.41992 10.3379 2.41992C10.3779 2.86992 10.4079 3.31992 10.4479 3.76992C11.8779 3.58992 12.0579 3.65992 12.6479 3.62992C12.8879 3.62992 14.4179 3.77992 14.6479 3.84992C15.6379 4.12992 16.1279 4.40992 16.1279 4.40992V4.41992Z" fill="#F4F4F4" stroke="#F4F4F4" stroke-width="0.2" stroke-linecap="round" stroke-linejoin="round"/>
<path d="M17.8877 6.69995C17.8877 6.69995 16.2077 5.47995 14.9277 5.10995C13.8677 4.80995 12.7877 4.69995 10.9077 4.69995C10.9577 5.14995 10.9977 5.59995 11.0477 6.04995C12.7677 5.86995 12.9877 5.93995 13.6977 5.90995C13.9877 5.90995 15.8277 6.05995 16.1077 6.12995C17.3077 6.40995 17.8877 6.68995 17.8877 6.68995V6.69995Z" fill="#F4F4F4" stroke="#F4F4F4" stroke-width="0.2" stroke-linecap="round" stroke-linejoin="round"/>
<path d="M16.6875 21.1899C16.6875 21.1899 18.4475 20.5899 19.2875 19.8599C19.9875 19.2499 20.5275 18.5299 21.3075 17.1799C20.8975 16.9899 20.4875 16.7899 20.0775 16.5999C19.5175 17.9299 19.3675 18.0499 19.0975 18.5699C18.9875 18.7799 18.0775 20.0299 17.9075 20.1899C17.1675 20.9099 16.6875 21.1899 16.6875 21.1899Z" fill="#F4F4F4" stroke="#F4F4F4" stroke-width="0.2" stroke-linecap="round" stroke-linejoin="round"/>
<path d="M13.8376 21.58C13.8376 21.58 15.7376 20.73 16.6876 19.81C17.4776 19.05 18.1076 18.17 19.0576 16.53C18.6476 16.34 18.2276 16.16 17.8176 15.97C17.1176 17.55 16.9476 17.7 16.6076 18.34C16.4676 18.59 15.4076 20.11 15.2076 20.32C14.3676 21.22 13.8276 21.58 13.8276 21.58H13.8376Z" fill="#F4F4F4" stroke="#F4F4F4" stroke-width="0.2" stroke-linecap="round" stroke-linejoin="round"/>
<path d="M2.21773 13.0798C2.21773 13.0798 1.85773 14.8998 2.06773 15.9998C2.24773 16.9098 2.59773 17.7398 3.37773 19.0998C3.74773 18.8398 4.11773 18.5798 4.49773 18.3298C3.62773 17.1898 3.59773 16.9898 3.27773 16.4898C3.14773 16.2898 2.52773 14.8798 2.46773 14.6498C2.21773 13.6498 2.21773 13.0898 2.21773 13.0898V13.0798Z" fill="#F4F4F4" stroke="#F4F4F4" stroke-width="0.2" stroke-linecap="round" stroke-linejoin="round"/>
<path d="M3.30763 10.4199C3.30763 10.4199 3.08763 12.4899 3.40763 13.7699C3.67763 14.8399 4.11762 15.8299 5.06762 17.4599C5.43762 17.1999 5.80763 16.9299 6.16763 16.6699C5.14763 15.2699 5.10762 15.0499 4.72762 14.4399C4.57762 14.1999 3.79763 12.5099 3.70763 12.2399C3.34763 11.0599 3.30763 10.4199 3.30763 10.4199Z" fill="#F4F4F4" stroke="#F4F4F4" stroke-width="0.2" stroke-linecap="round" stroke-linejoin="round"/>
</svg>
