<svg width="24" height="24" viewBox="0 0 24 24" fill="none" xmlns="http://www.w3.org/2000/svg">
<path d="M2.90918 14.1455H4.42736H20.9546" stroke="#F4F4F4" stroke-miterlimit="10" stroke-linecap="round"/>
<path d="M6.93638 14.1454H4.38184L4.40911 11.5181C4.85456 11.5817 5.15456 11.5636 5.59093 11.5636C6.02729 11.5636 6.49093 11.5454 6.93638 11.4727C6.93638 12.3636 6.93638 13.2454 6.93638 14.1454Z" stroke="#F4F4F4" stroke-linecap="round" stroke-linejoin="round"/>
<path d="M11.1635 14.1455H8.59082V11.3092C8.59082 11.3092 9.42718 11.2182 9.87264 11.1364C10.2908 11.0546 11.1545 10.8364 11.1545 10.8364V14.1455H11.1635Z" stroke="#F4F4F4" stroke-linecap="round" stroke-linejoin="round"/>
<path d="M15.3907 14.1454H12.8543V10.5182C12.7452 10.5454 13.8361 10.2363 14.227 10.0454C14.6907 9.81817 15.6452 9.46362 15.427 9.46362C15.427 10.6727 15.3998 12.9364 15.3998 14.1454H15.3907Z" stroke="#F4F4F4" stroke-linecap="round" stroke-linejoin="round"/>
<path d="M19.6272 14.1454H17.0908V8.79998C18.2272 8.11816 17.8363 8.32725 18.2272 8.11816C19.0726 7.66361 18.7635 7.7818 19.6363 7.27271V14.1363L19.6272 14.1454Z" stroke="#F4F4F4" stroke-linecap="round" stroke-linejoin="round"/>
<path d="M4.26367 10.0273C6.1364 10.1273 7.89094 9.95453 9.17276 9.6818C12.4819 8.9818 12.9819 8.81816 15.6364 7.69998C16.3182 7.40907 19.4182 5.59998 19.6182 5.27271" stroke="#F4F4F4" stroke-linecap="round" stroke-linejoin="round"/>
<path d="M15.3274 14.3638C15.3274 16.2001 13.8365 17.691 12.0001 17.691C10.1638 17.691 8.67285 16.2001 8.67285 14.3638" stroke="#F4F4F4" stroke-linecap="round" stroke-linejoin="round"/>
<path d="M5.72713 14.2637C5.69986 15.2182 5.73623 15.0819 5.72713 15.5637C5.72713 15.6819 5.74532 15.7364 5.9635 15.8364C6.33623 16 6.97259 15.8364 6.97259 15.8364C7.21804 16.8182 7.53623 17.3909 7.53623 17.3909C7.43623 17.5091 6.83623 18.0455 6.69986 18.2364L8.3635 19.8091C8.9635 19.6819 9.01804 19.3 9.30895 19.1273L10.7453 19.7364C10.8362 20.1546 10.6726 20.6455 10.7453 20.8819L13.1453 20.8637C13.2908 20.5819 13.2453 19.8819 13.2453 19.7637L14.6999 19.1091C15.109 19.4364 15.218 19.7091 15.6362 19.8182L17.209 18.2819C17.2726 17.8273 16.7999 17.8273 16.509 17.3182L17.0726 15.8546C17.5726 15.9091 17.9544 15.9637 18.2817 15.8819C18.2817 15.8819 18.309 15.5182 18.2635 14.2637" stroke="#F4F4F4" stroke-linecap="round" stroke-linejoin="round"/>
<path d="M21.0907 3.36377L18.6089 4.30922L20.6725 5.98195L21.0907 3.36377Z" fill="#F4F4F4" stroke="#F4F4F4" stroke-linecap="round" stroke-linejoin="round"/>
</svg>
