<svg width="24" height="24" viewBox="0 0 24 24" fill="none" xmlns="http://www.w3.org/2000/svg">
<g clip-path="url(#clip0_9254_88873)">
<path fill-rule="evenodd" clip-rule="evenodd" d="M4.77817 7.51288C6.01207 7.51288 7.02167 6.50328 7.02167 5.26938C7.02167 4.03548 6.01207 3.02588 4.77817 3.02588C3.54427 3.02588 2.53467 4.03548 2.53467 5.26938C2.53467 6.50328 3.54427 7.51288 4.77817 7.51288ZM4.77817 9.75638C3.54427 9.75638 2.53467 10.766 2.53467 11.9999C2.53467 13.2338 3.54427 14.2434 4.77817 14.2434C6.01207 14.2434 7.02167 13.2338 7.02167 11.9999C7.02167 10.766 6.01207 9.75638 4.77817 9.75638ZM2.53467 18.7304C2.53467 17.4965 3.54427 16.4869 4.77817 16.4869C6.01207 16.4869 7.02167 17.4965 7.02167 18.7304C7.02167 19.9643 6.01207 20.9739 4.77817 20.9739C3.54427 20.9739 2.53467 19.9643 2.53467 18.7304Z" fill="#F4F4F4"/>
<path fill-rule="evenodd" clip-rule="evenodd" d="M12.2216 7.51288C13.4555 7.51288 14.4651 6.50328 14.4651 5.26938C14.4651 4.03548 13.4555 3.02588 12.2216 3.02588C10.9877 3.02588 9.97807 4.03548 9.97807 5.26938C9.97807 6.50328 10.9877 7.51288 12.2216 7.51288ZM12.2216 9.75638C10.9877 9.75638 9.97807 10.766 9.97807 11.9999C9.97807 13.2338 10.9877 14.2434 12.2216 14.2434C13.4555 14.2434 14.4651 13.2338 14.4651 11.9999C14.4651 10.766 13.4555 9.75638 12.2216 9.75638ZM9.97807 18.7304C9.97807 17.4965 10.9877 16.4869 12.2216 16.4869C13.4555 16.4869 14.4651 17.4965 14.4651 18.7304C14.4651 19.9643 13.4555 20.9739 12.2216 20.9739C10.9877 20.9739 9.97807 19.9643 9.97807 18.7304Z" fill="#F4F4F4"/>
<path fill-rule="evenodd" clip-rule="evenodd" d="M19.2215 7.51288C20.4554 7.51288 21.465 6.50328 21.465 5.26938C21.465 4.03548 20.4554 3.02588 19.2215 3.02588C17.9876 3.02588 16.978 4.03548 16.978 5.26938C16.978 6.50328 17.9876 7.51288 19.2215 7.51288ZM19.2215 9.75638C17.9876 9.75638 16.978 10.766 16.978 11.9999C16.978 13.2338 17.9876 14.2434 19.2215 14.2434C20.4554 14.2434 21.465 13.2338 21.465 11.9999C21.465 10.766 20.4554 9.75638 19.2215 9.75638ZM16.978 18.7304C16.978 17.4965 17.9876 16.4869 19.2215 16.4869C20.4554 16.4869 21.465 17.4965 21.465 18.7304C21.465 19.9643 20.4554 20.9739 19.2215 20.9739C17.9876 20.9739 16.978 19.9643 16.978 18.7304Z" fill="#F4F4F4"/>
</g>
<defs>
<clipPath id="clip0_9254_88873">
<rect width="24" height="24" fill="white"/>
</clipPath>
</defs>
</svg>
