<svg width="512" height="204" viewBox="0 0 512 204" fill="none" xmlns="http://www.w3.org/2000/svg">
<path d="M127.231 43.8206V51.3485C124.527 52.0654 125.068 51.8862 122.545 52.6031C120.922 53.1408 117.858 54.2162 111.909 56.7255C107.763 58.5178 105.42 59.414 102.355 61.0272C97.4882 63.5363 95.1453 65.1497 93.3422 66.7624C89.1963 70.3474 87.2137 72.6772 87.2137 72.6772C87.2137 72.6772 86.6727 69.4511 88.1149 67.3004C89.5571 65.1497 91.1795 63.5363 93.523 61.9236C98.3894 58.5178 100.913 56.9047 103.978 55.1124C107.703 53.0811 111.368 51.2887 114.973 49.7353C123.626 45.9715 124.347 45.4337 127.231 43.8206Z" fill="#F4F4F4" stroke="#F4F4F4" stroke-width="0.13913" stroke-miterlimit="10"/>
<path d="M138.046 52.0651L138.767 62.2814C136.244 62.9985 135.523 63.1776 132.999 64.0739C131.557 64.6112 129.033 65.1492 123.986 66.9417C117.677 69.2716 112.269 70.7058 109.565 71.9603C103.797 74.8281 98.0287 76.9788 92.2604 81.2803C85.771 85.9406 81.625 90.0629 81.625 90.0629C81.625 90.0629 82.3461 86.2988 82.7064 85.4026C83.9685 82.5347 85.771 80.7429 87.9337 78.7713C90.8182 76.0826 95.6853 73.3939 100.372 70.1678C102.355 68.9133 104.518 67.6582 108.664 65.3284C111.007 64.0739 113.891 62.2814 118.218 60.1306C124.527 56.9044 124.166 57.4421 128.132 55.6497C135.523 52.6028 136.064 52.6028 137.685 51.8859L138.046 52.0651Z" fill="#F4F4F4" stroke="#F4F4F4" stroke-width="0.13913" stroke-miterlimit="10"/>
<path d="M160.579 66.9402L160.94 81.637C156.253 81.637 158.236 81.637 153.188 81.9958C150.485 81.9958 147.24 82.5332 140.57 83.7877C134.622 84.8637 130.116 86.1182 125.789 87.3726C122.725 88.2689 118.398 89.5234 112.45 91.6741C107.042 93.6457 102.535 95.6173 99.2908 97.0515C94.4237 99.2022 90.9988 101.174 85.2305 104.221C80.0032 107.089 77.2994 108.522 73.8746 110.494C67.5653 114.437 68.6466 112.645 68.6466 112.645C69.3678 111.569 72.7926 108.522 77.6597 104.4C82.7069 100.098 85.2305 97.7686 88.8361 95.259C91.72 93.1083 95.5057 90.2405 101.454 86.8353C108.124 82.8921 111.549 81.637 117.678 78.59C120.742 77.1564 123.806 75.5431 128.132 73.9303C133.54 71.779 137.686 70.7036 138.588 70.5245C145.798 68.5529 145.077 69.0909 152.828 67.8364C158.236 66.9402 157.154 67.2984 160.76 66.9402H160.579Z" fill="#F4F4F4" stroke="#F4F4F4" stroke-width="0.13913" stroke-miterlimit="10"/>
<path d="M173.017 145.088C173.017 145.088 173.738 140.069 174.999 134.513C175.36 132.721 176.622 128.778 179.686 125.014C180.588 123.759 181.849 122.683 184.373 120.712C185.815 119.457 188.519 117.307 191.944 114.798C196.09 112.109 196.09 111.93 200.777 109.062C206.545 105.477 205.463 105.836 210.511 102.789C213.575 100.996 213.936 100.817 216.639 97.7697C217.18 97.2324 217.36 92.5721 217.36 92.5721C217.36 92.5721 215.558 90.4213 210.691 89.346C203.661 87.5535 200.236 87.5535 200.236 87.5535C182.75 87.3744 171.214 88.8086 171.214 88.8086C168.871 89.1669 159.678 90.2422 147.24 92.9309C142.192 94.0063 134.802 95.619 125.428 98.3077C115.334 101.355 107.943 104.223 98.9298 107.807C90.2776 111.213 91.9 110.854 72.7925 118.92C61.7963 123.58 57.8308 125.193 53.1441 127.165C50.2599 128.419 48.8179 128.24 48.4574 129.315C47.3757 132.541 57.1098 138.456 68.1056 145.267C73.6938 148.672 76.3975 150.465 79.1012 151.72C92.9814 158.351 105.599 159.247 112.089 159.785C117.136 160.144 120.742 159.965 122.003 159.965C128.493 159.785 133.36 158.71 137.506 157.993C139.488 157.634 144.535 156.559 150.665 154.587C160.579 151.54 158.957 151.899 167.97 147.777C170.132 146.881 173.017 145.088 173.017 145.088Z" fill="#F4F4F4" stroke="#F4F4F4" stroke-width="0.13913" stroke-miterlimit="10"/>
<path d="M57.8306 77.8741C57.8306 77.8741 49.3584 58.1585 47.5558 50.9892C44.4914 38.4428 46.8348 21.4154 46.8348 21.4154C46.8348 21.4154 53.1438 13.8876 67.0239 9.58599C96.7667 0.265791 125.428 4.92589 125.428 4.92589C125.428 4.92589 116.415 5.64282 102.535 11.916C90.0972 17.6516 82.3456 25.0001 80.0027 27.3302C77.8394 29.481 69.3673 38.2635 63.4189 52.7816C59.2726 62.8184 57.6503 78.0538 57.6503 78.0538L57.8306 77.8741Z" fill="#F4F4F4" stroke="#F4F4F4" stroke-width="0.13913" stroke-miterlimit="10"/>
<path d="M38.3632 27.152C38.3632 27.152 31.8738 34.3214 29.7107 39.34C28.8094 41.3116 25.7451 48.8395 25.024 62.282C24.6635 67.1214 24.303 75.9041 26.6464 87.0165C27.7279 92.0351 30.6121 104.044 38.904 117.128C47.196 130.212 56.7496 137.919 59.9944 140.428C74.5956 151.541 88.4751 155.126 96.046 156.918C105.96 159.248 114.973 159.069 114.973 159.069C114.973 159.069 106.681 156.918 96.5869 151.182C95.1447 150.465 89.0161 146.881 82.3466 140.428C77.6596 135.948 69.0074 127.523 64.6813 114.439C62.1577 106.553 58.372 94.3649 58.372 94.3649C58.372 94.3649 55.3076 90.2426 52.784 85.9412C51.8827 84.3278 49.5393 80.0264 46.1144 68.9139C42.8697 58.1596 40.8868 51.7072 39.9855 42.5662C39.0842 32.8876 38.3632 26.9728 38.3632 26.9728V27.152Z" fill="#F4F4F4" stroke="#F4F4F4" stroke-width="0.13913" stroke-miterlimit="10"/>
<path d="M16.3721 57.2663C16.3721 57.2663 12.7669 63.8983 12.2261 65.6901C8.44069 75.7272 7.17883 84.3307 6.81827 88.453C5.55647 99.2073 6.45777 107.452 6.81827 110.141C7.35908 115.338 8.80113 125.017 13.3077 136.309C15.2905 141.327 18.8957 149.931 26.106 159.072C28.81 162.477 34.9388 169.647 46.6557 177.353C57.6515 184.702 86.8535 204.059 123.446 198.324C128.313 197.607 140.571 195.098 154.451 187.39C159.859 184.344 169.773 178.07 179.327 167.316C185.636 160.326 189.06 154.232 193.387 146.346C193.747 145.629 198.795 134.337 198.795 134.337C198.795 134.337 194.288 141.327 185.095 147.78C178.065 152.799 169.953 155.666 167.069 156.742C165.086 157.458 157.696 160.147 155.713 160.864C141.832 164.986 142.013 164.807 137.867 165.883C119.3 171.259 100.554 166.958 95.3256 165.883C92.2616 165.166 83.2485 163.015 72.433 157.638C66.1237 154.411 55.1279 148.138 44.3123 136.847C39.9861 132.366 31.5138 122.866 24.8442 108.527C20.1575 98.4901 16.372 87.1985 15.4708 72.1429C15.1102 64.9736 16.5523 57.4455 16.5523 57.4455L16.3721 57.2663Z" fill="#F4F4F4" stroke="#F4F4F4" stroke-width="0.13913" stroke-miterlimit="10"/>
<path d="M263.957 129.916L258.55 135.294H243.408L238 129.916V72.5616L243.408 67.1848H258.55L263.957 72.5616V129.916ZM248.635 74.354L246.833 76.1465V125.974L248.635 127.766H253.683L255.485 125.974V76.1465L253.683 74.354H248.635Z" fill="#00AAFF"/>
<path d="M269.364 72.3774L274.772 67H288.111L293.519 72.3774V87.7913H284.867V75.9617L283.064 74.1693H279.819L278.016 75.9617V125.968L279.819 127.761H283.064L284.867 125.968V114.318H293.519V129.732L288.111 135.109H274.772L269.364 129.732V72.3774Z" fill="#00AAFF"/>
<path d="M298.565 67H320.016V74.349H307.218V96.9322H318.394V104.281H307.218V127.761H320.197V135.109H298.565V67Z" fill="#00AAFF"/>
<path d="M332.814 117.544L331.011 135.109H322.359L330.651 67H343.089L351.561 135.109H342.548L340.745 117.544H332.814ZM336.779 75.9617L333.355 110.375H340.024L336.599 75.9617H336.779Z" fill="#00AAFF"/>
<path d="M355.348 67H364.721L374.635 114.318V67H382.566V135.109H373.193L363.279 88.5084V135.109H355.348V67Z" fill="#00AAFF"/>
<path d="M402.755 67H424.206V74.349H411.408V96.9322H422.584V104.281H411.408V127.761H424.386V135.109H402.755V67Z" fill="#00AAFF"/>
<path d="M437.183 135.289V112.884L426.728 67H436.102L441.509 100.517L446.918 67H456.291L445.836 112.884V135.289H437.363H437.183Z" fill="#00AAFF"/>
<path d="M459.897 67H481.348V74.349H468.549V96.9322H479.726V104.281H468.549V127.761H481.528V135.109H459.897V67Z" fill="#00AAFF"/>
</svg>
