<svg width="24" height="24" viewBox="0 0 24 24" fill="none" xmlns="http://www.w3.org/2000/svg">
<g clip-path="url(#clip0_2119_27656)">
<path d="M21.5376 11.0841L13.8936 3.82425C12.8497 2.83495 11.1514 2.83495 10.1065 3.82425L2.46247 11.0841C2.16217 11.3693 2.14997 11.8439 2.43517 12.1446C2.58267 12.2999 2.78087 12.3779 2.97907 12.3779C3.16457 12.3779 3.35067 12.3096 3.49567 12.1719L3.89357 11.794V19.1338C3.89357 20.1172 4.67877 20.9179 5.64357 20.9179H8.74027C9.70507 20.9179 10.4903 20.1172 10.4903 19.1338V16.9375H13.5103V19.1338C13.5103 20.1172 14.2955 20.9179 15.2603 20.9179H18.3565C19.3213 20.9179 20.1065 20.1172 20.1065 19.1338V11.794L20.5044 12.1719C20.8042 12.4551 21.2788 12.4444 21.5649 12.1446C21.8501 11.8438 21.8378 11.3692 21.5376 11.0841ZM18.6064 19.1339C18.6064 19.2901 18.4941 19.4181 18.3564 19.4181H15.2602C15.1225 19.4181 15.0102 19.2901 15.0102 19.1339V16.1875C15.0102 15.7734 14.6743 15.4376 14.2602 15.4376H9.74017C9.32607 15.4376 8.99017 15.7734 8.99017 16.1875V19.1339C8.99017 19.2901 8.87787 19.4181 8.74017 19.4181H5.64347C5.50577 19.4181 5.39347 19.2901 5.39347 19.1339V10.3693L11.1391 4.91225C11.6054 4.46885 12.3945 4.46885 12.8608 4.91225L18.6064 10.3693V19.1339Z" fill="#F4F4F4"/>
</g>
<defs>
<clipPath id="clip0_2119_27656">
<rect width="24" height="24" fill="white"/>
</clipPath>
</defs>
</svg>
