<svg width="24" height="24" viewBox="0 0 24 24" fill="none" xmlns="http://www.w3.org/2000/svg">
<path d="M5.02091 2.0354V12.3762H2.50342L7.02852 16.9173L9.32294 14.6228" stroke="#F4F4F4" stroke-width="0.486773" stroke-linecap="round" stroke-linejoin="round"/>
<path d="M18.9783 2.0354V12.3762H21.4958L16.9707 16.9173L14.6763 14.6228" stroke="#F4F4F4" stroke-width="0.486773" stroke-linecap="round" stroke-linejoin="round"/>
<path d="M10.0241 10.4005V17.4431H7.49072L11.984 22.0001L16.4613 17.4431H13.9278V10.2412" stroke="#F4F4F4" stroke-width="0.486773" stroke-linecap="round" stroke-linejoin="round"/>
<path d="M8.90869 9.47632V12.5037" stroke="#F4F4F4" stroke-width="0.486773" stroke-linecap="round" stroke-linejoin="round"/>
<path d="M15.0908 9.47632V12.5037" stroke="#F4F4F4" stroke-width="0.486773" stroke-linecap="round" stroke-linejoin="round"/>
<path d="M10.2546 8.06453C9.96417 8.06453 9.7141 7.99597 9.50436 7.85883C9.29463 7.7217 9.13329 7.5328 9.02035 7.29214C8.90742 7.05148 8.85095 6.77654 8.85095 6.46731C8.85095 6.1527 8.90876 5.87507 9.02439 5.63441C9.14136 5.39241 9.30404 5.20351 9.51243 5.06772C9.72217 4.93058 9.96686 4.86202 10.2465 4.86202C10.4643 4.86202 10.6606 4.90235 10.8354 4.98302C11.0102 5.06369 11.1533 5.17662 11.2649 5.32182C11.3765 5.46703 11.4458 5.63643 11.4727 5.83003H10.9967C10.9604 5.68886 10.8798 5.56383 10.7547 5.45493C10.631 5.34468 10.4643 5.28956 10.2546 5.28956C10.069 5.28956 9.90636 5.33796 9.76653 5.43476C9.62805 5.53022 9.51982 5.66534 9.44184 5.84012C9.36521 6.01355 9.32689 6.21724 9.32689 6.45118C9.32689 6.69049 9.36454 6.89888 9.43983 7.07635C9.51646 7.25382 9.62402 7.39163 9.7625 7.48978C9.90232 7.58792 10.0663 7.63699 10.2546 7.63699C10.3783 7.63699 10.4905 7.61548 10.5914 7.57246C10.6922 7.52944 10.7776 7.46759 10.8475 7.38692C10.9174 7.30626 10.9671 7.20945 10.9967 7.09652H11.4727C11.4458 7.27937 11.3792 7.44406 11.273 7.59061C11.1681 7.73581 11.029 7.85144 10.8556 7.93748C10.6835 8.02218 10.4831 8.06453 10.2546 8.06453ZM13.4268 8.06453C13.1472 8.06453 12.9018 7.99798 12.6907 7.86488C12.481 7.73178 12.317 7.54557 12.1987 7.30626C12.0817 7.06694 12.0232 6.78729 12.0232 6.46731C12.0232 6.14464 12.0817 5.86297 12.1987 5.62231C12.317 5.38165 12.481 5.19477 12.6907 5.06167C12.9018 4.92857 13.1472 4.86202 13.4268 4.86202C13.7065 4.86202 13.9512 4.92857 14.1609 5.06167C14.372 5.19477 14.536 5.38165 14.653 5.62231C14.7713 5.86297 14.8305 6.14464 14.8305 6.46731C14.8305 6.78729 14.7713 7.06694 14.653 7.30626C14.536 7.54557 14.372 7.73178 14.1609 7.86488C13.9512 7.99798 13.7065 8.06453 13.4268 8.06453ZM13.4268 7.63699C13.6393 7.63699 13.814 7.58254 13.9512 7.47364C14.0883 7.36474 14.1898 7.22155 14.2557 7.04408C14.3216 6.86662 14.3545 6.67436 14.3545 6.46731C14.3545 6.26026 14.3216 6.06733 14.2557 5.88852C14.1898 5.7097 14.0883 5.56517 13.9512 5.45493C13.814 5.34468 13.6393 5.28956 13.4268 5.28956C13.2144 5.28956 13.0396 5.34468 12.9025 5.45493C12.7654 5.56517 12.6639 5.7097 12.598 5.88852C12.5321 6.06733 12.4992 6.26026 12.4992 6.46731C12.4992 6.67436 12.5321 6.86662 12.598 7.04408C12.6639 7.22155 12.7654 7.36474 12.9025 7.47364C13.0396 7.58254 13.2144 7.63699 13.4268 7.63699Z" fill="#F4F4F4"/>
<path d="M9.50436 7.85883L9.44999 7.94199H9.44999L9.50436 7.85883ZM9.02439 5.63441L8.93493 5.59117L8.93483 5.59138L9.02439 5.63441ZM9.51243 5.06772L9.56667 5.15097L9.5668 5.15088L9.51243 5.06772ZM11.2649 5.32182L11.3437 5.26128L11.2649 5.32182ZM11.4727 5.83003V5.92939H11.5868L11.5711 5.81636L11.4727 5.83003ZM10.9967 5.83003L10.9005 5.85478L10.9197 5.92939H10.9967V5.83003ZM10.7547 5.45493L10.6886 5.52911L10.6895 5.52985L10.7547 5.45493ZM9.76653 5.43476L9.82293 5.51657L9.82309 5.51645L9.76653 5.43476ZM9.44184 5.84012L9.3511 5.79963L9.35096 5.79996L9.44184 5.84012ZM9.43983 7.07635L9.34835 7.11516L9.34861 7.11574L9.43983 7.07635ZM9.7625 7.48978L9.70504 7.57084L9.70541 7.5711L9.7625 7.48978ZM10.5914 7.57246L10.5524 7.48107L10.5914 7.57246ZM10.8475 7.38692L10.9226 7.452L10.8475 7.38692ZM10.9967 7.09652V6.99716H10.92L10.9006 7.07134L10.9967 7.09652ZM11.4727 7.09652L11.571 7.11098L11.5877 6.99716H11.4727V7.09652ZM11.273 7.59061L11.1926 7.5323L11.1925 7.53243L11.273 7.59061ZM10.8556 7.93748L10.8994 8.02663L10.8997 8.02649L10.8556 7.93748ZM10.2546 7.96517C9.98034 7.96517 9.74987 7.90064 9.55874 7.77567L9.44999 7.94199C9.67833 8.0913 9.948 8.1639 10.2546 8.1639V7.96517ZM9.55874 7.77567C9.36538 7.64924 9.21591 7.47496 9.1103 7.24993L8.9304 7.33435C9.05067 7.59064 9.22387 7.79415 9.44999 7.94199L9.55874 7.77567ZM9.1103 7.24993C9.0045 7.02447 8.95031 6.76431 8.95031 6.46731H8.75159C8.75159 6.78876 8.81034 7.07849 8.9304 7.33435L9.1103 7.24993ZM8.95031 6.46731C8.95031 6.16496 9.00583 5.90248 9.11395 5.67744L8.93483 5.59138C8.8117 5.84766 8.75159 6.14044 8.75159 6.46731H8.95031ZM9.11385 5.67765C9.2236 5.45058 9.37466 5.27608 9.56667 5.15097L9.45818 4.98447C9.23341 5.13094 9.05911 5.33424 8.93493 5.59117L9.11385 5.67765ZM9.5668 5.15088C9.75854 5.02552 9.98385 4.96138 10.2465 4.96138V4.76265C9.94986 4.76265 9.68579 4.83565 9.45805 4.98456L9.5668 5.15088ZM10.2465 4.96138C10.4518 4.96138 10.6336 4.99934 10.7937 5.07324L10.877 4.8928C10.6876 4.80536 10.4768 4.76265 10.2465 4.76265V4.96138ZM10.7937 5.07324C10.9547 5.14752 11.0849 5.25058 11.1862 5.38237L11.3437 5.26128C11.2218 5.10267 11.0656 4.97985 10.877 4.8928L10.7937 5.07324ZM11.1862 5.38237C11.2865 5.51299 11.3496 5.66597 11.3742 5.8437L11.5711 5.81636C11.542 5.60688 11.4665 5.42106 11.3437 5.26128L11.1862 5.38237ZM11.4727 5.73067H10.9967V5.92939H11.4727V5.73067ZM11.093 5.80529C11.051 5.64204 10.958 5.50023 10.82 5.38L10.6895 5.52985C10.8015 5.62743 10.8699 5.73568 10.9005 5.85478L11.093 5.80529ZM10.8208 5.38075C10.6745 5.25032 10.482 5.19019 10.2546 5.19019V5.38892C10.4466 5.38892 10.5876 5.43904 10.6886 5.5291L10.8208 5.38075ZM10.2546 5.19019C10.0508 5.19019 9.86793 5.24371 9.70997 5.35306L9.82309 5.51645C9.94478 5.43221 10.0873 5.38892 10.2546 5.38892V5.19019ZM9.71014 5.35295C9.55465 5.46014 9.43547 5.61053 9.3511 5.79963L9.53258 5.8806C9.60418 5.72014 9.70146 5.6003 9.82293 5.51657L9.71014 5.35295ZM9.35096 5.79996C9.26759 5.98864 9.22753 6.20655 9.22753 6.45118H9.42625C9.42625 6.22792 9.46283 6.03847 9.53273 5.88027L9.35096 5.79996ZM9.22753 6.45118C9.22753 6.7007 9.26677 6.92284 9.34836 7.11516L9.5313 7.03755C9.46231 6.87493 9.42625 6.68028 9.42625 6.45118H9.22753ZM9.34861 7.11574C9.43144 7.30756 9.54972 7.46076 9.70504 7.57084L9.81995 7.40871C9.69831 7.3225 9.60149 7.20008 9.53105 7.03696L9.34861 7.11574ZM9.70541 7.5711C9.86366 7.68218 10.0481 7.73636 10.2546 7.73636V7.53763C10.0846 7.53763 9.94099 7.49366 9.81958 7.40845L9.70541 7.5711ZM10.2546 7.73636C10.39 7.73636 10.5157 7.71277 10.6304 7.66385L10.5524 7.48107C10.4653 7.5182 10.3666 7.53763 10.2546 7.53763V7.73636ZM10.6304 7.66385C10.7447 7.61507 10.8425 7.54438 10.9226 7.452L10.7724 7.32185C10.7126 7.39081 10.6397 7.4438 10.5524 7.48107L10.6304 7.66385ZM10.9226 7.452C11.0034 7.35877 11.0598 7.24796 11.0928 7.12169L10.9006 7.07134C10.8745 7.17095 10.8314 7.25374 10.7724 7.32185L10.9226 7.452ZM10.9967 7.19588H11.4727V6.99716H10.9967V7.19588ZM11.3744 7.08206C11.3497 7.24941 11.2892 7.399 11.1926 7.5323L11.3535 7.64892C11.4693 7.48913 11.5418 7.30932 11.571 7.11098L11.3744 7.08206ZM11.1925 7.53243C11.0978 7.66351 10.9716 7.769 10.8114 7.84847L10.8997 8.02649C11.0864 7.93387 11.2385 7.80811 11.3536 7.64879L11.1925 7.53243ZM10.8117 7.84833C10.6556 7.92515 10.4708 7.96517 10.2546 7.96517V8.1639C10.4955 8.1639 10.7113 8.11922 10.8994 8.02663L10.8117 7.84833ZM12.6907 7.86488L12.6375 7.94878L12.6377 7.94893L12.6907 7.86488ZM12.1987 7.30626L12.1094 7.34989L12.1096 7.35029L12.1987 7.30626ZM12.1987 5.62231L12.1095 5.57847L12.1093 5.57888L12.1987 5.62231ZM12.6907 5.06167L12.6377 4.97762L12.6375 4.97778L12.6907 5.06167ZM14.1609 5.06167L14.1077 5.14557L14.1079 5.14572L14.1609 5.06167ZM14.653 5.62231L14.5636 5.66575L14.5638 5.66615L14.653 5.62231ZM14.653 7.30626L14.5639 7.26222L14.5637 7.26262L14.653 7.30626ZM14.1609 7.86488L14.1079 7.78083L14.1077 7.78099L14.1609 7.86488ZM13.9512 7.47364L13.8894 7.39583L13.9512 7.47364ZM14.2557 7.04409L14.3489 7.07866L14.2557 7.04409ZM14.2557 5.88852L14.3489 5.85417V5.85417L14.2557 5.88852ZM13.9512 5.45493L14.0134 5.37749L13.9512 5.45493ZM12.9025 5.45493L12.8402 5.37749L12.9025 5.45493ZM12.598 5.88852L12.5047 5.85417V5.85417L12.598 5.88852ZM12.598 7.04409L12.5048 7.07866L12.598 7.04409ZM12.9025 7.47364L12.9643 7.39583L12.9025 7.47364ZM13.4268 7.96517C13.1636 7.96517 12.9371 7.90276 12.7437 7.78083L12.6377 7.94893C12.8666 8.09321 13.1308 8.1639 13.4268 8.1639V7.96517ZM12.744 7.78099C12.5508 7.65837 12.3986 7.48648 12.2877 7.26222L12.1096 7.35029C12.2354 7.60466 12.4112 7.80519 12.6375 7.94878L12.744 7.78099ZM12.2879 7.26262C12.1788 7.03936 12.1226 6.77518 12.1226 6.46731H11.9239C11.9239 6.79941 11.9846 7.09452 12.1094 7.34989L12.2879 7.26262ZM12.1226 6.46731C12.1226 6.15663 12.1789 5.89037 12.288 5.66575L12.1093 5.57888C11.9845 5.83557 11.9239 6.13264 11.9239 6.46731H12.1226ZM12.2878 5.66615C12.3988 5.44054 12.5509 5.26809 12.744 5.14556L12.6375 4.97778C12.4111 5.12145 12.2352 5.32277 12.1095 5.57847L12.2878 5.66615ZM12.7437 5.14572C12.9371 5.0238 13.1636 4.96138 13.4268 4.96138V4.76265C13.1308 4.76265 12.8666 4.83334 12.6377 4.97762L12.7437 5.14572ZM13.4268 4.96138C13.6901 4.96138 13.9158 5.0238 14.1077 5.14556L14.2142 4.97778C13.9866 4.83334 13.7229 4.76265 13.4268 4.76265V4.96138ZM14.1079 5.14572C14.3022 5.26822 14.4541 5.4405 14.5636 5.66575L14.7424 5.57888C14.6179 5.32281 14.4418 5.12133 14.2139 4.97762L14.1079 5.14572ZM14.5638 5.66615C14.6742 5.89067 14.7311 6.15679 14.7311 6.46731H14.9298C14.9298 6.13249 14.8684 5.83527 14.7422 5.57847L14.5638 5.66615ZM14.7311 6.46731C14.7311 6.77502 14.6743 7.03906 14.5639 7.26222L14.7421 7.35029C14.8684 7.09483 14.9298 6.79957 14.9298 6.46731H14.7311ZM14.5637 7.26262C14.4543 7.48653 14.3023 7.65824 14.1079 7.78083L14.2139 7.94893C14.4417 7.80531 14.6178 7.60462 14.7423 7.34989L14.5637 7.26262ZM14.1077 7.78099C13.9158 7.90275 13.6901 7.96517 13.4268 7.96517V8.1639C13.7229 8.1639 13.9866 8.09321 14.2142 7.94878L14.1077 7.78099ZM13.4268 7.73636C13.6568 7.73636 13.8548 7.6771 14.013 7.55145L13.8894 7.39583C13.7733 7.48799 13.6218 7.53763 13.4268 7.53763V7.73636ZM14.013 7.55145C14.1655 7.43036 14.2772 7.27171 14.3489 7.07866L14.1626 7.00951C14.1025 7.1714 14.0112 7.29912 13.8894 7.39583L14.013 7.55145ZM14.3489 7.07866C14.4192 6.88914 14.4539 6.68505 14.4539 6.46731H14.2552C14.2552 6.66366 14.224 6.84409 14.1626 7.00951L14.3489 7.07866ZM14.4539 6.46731C14.4539 6.24956 14.4192 6.04489 14.3489 5.85417L14.1625 5.92287C14.224 6.08977 14.2552 6.27097 14.2552 6.46731H14.4539ZM14.3489 5.85417C14.2774 5.6599 14.1658 5.49995 14.0134 5.37749L13.8889 5.53237C14.0109 5.63039 14.1023 5.75951 14.1625 5.92287L14.3489 5.85417ZM14.0134 5.37749C13.8552 5.25028 13.6571 5.19019 13.4268 5.19019V5.38892C13.6215 5.38892 13.7729 5.43908 13.8889 5.53237L14.0134 5.37749ZM13.4268 5.19019C13.1966 5.19019 12.9985 5.25028 12.8402 5.37749L12.9648 5.53237C13.0808 5.43908 13.2322 5.38892 13.4268 5.38892V5.19019ZM12.8402 5.37749C12.6879 5.49995 12.5763 5.6599 12.5047 5.85417L12.6912 5.92287C12.7514 5.75951 12.8428 5.63039 12.9648 5.53237L12.8402 5.37749ZM12.5047 5.85417C12.4345 6.04489 12.3998 6.24956 12.3998 6.46731H12.5985C12.5985 6.27097 12.6297 6.08977 12.6912 5.92287L12.5047 5.85417ZM12.3998 6.46731C12.3998 6.68505 12.4345 6.88914 12.5048 7.07866L12.6911 7.00951C12.6297 6.84409 12.5985 6.66366 12.5985 6.46731H12.3998ZM12.5048 7.07866C12.5765 7.27171 12.6882 7.43036 12.8407 7.55145L12.9643 7.39583C12.8425 7.29912 12.7512 7.1714 12.6911 7.00951L12.5048 7.07866ZM12.8407 7.55145C12.9989 7.6771 13.1969 7.73636 13.4268 7.73636V7.53763C13.2319 7.53763 13.0803 7.48799 12.9643 7.39583L12.8407 7.55145Z" fill="#F4F4F4"/>
<path d="M15.234 8.32104V8.16547L15.8183 7.52589C15.8868 7.45098 15.9433 7.38587 15.9877 7.33056C16.032 7.27467 16.0649 7.22223 16.0862 7.17326C16.1081 7.1237 16.1191 7.07184 16.1191 7.01768C16.1191 6.95545 16.1041 6.90158 16.0741 6.85606C16.0447 6.81054 16.0044 6.77539 15.9531 6.75061C15.9018 6.72584 15.8442 6.71345 15.7802 6.71345C15.7123 6.71345 15.6529 6.72756 15.6022 6.7558C15.5521 6.78346 15.5132 6.82235 15.4855 6.87248C15.4584 6.92261 15.4449 6.98138 15.4449 7.0488H15.2409C15.2409 6.94508 15.2648 6.85404 15.3127 6.77568C15.3605 6.69731 15.4256 6.63624 15.508 6.59245C15.591 6.54865 15.684 6.52676 15.7872 6.52676C15.8909 6.52676 15.9828 6.54865 16.0629 6.59245C16.143 6.63624 16.2058 6.6953 16.2513 6.76963C16.2968 6.84396 16.3196 6.92664 16.3196 7.01768C16.3196 7.08279 16.3078 7.14646 16.2841 7.20869C16.2611 7.27035 16.2208 7.3392 16.1631 7.41526C16.1061 7.49074 16.0269 7.58293 15.9255 7.69183L15.5279 8.11707V8.1309H16.3507V8.32104H15.234Z" fill="#F4F4F4"/>
<path d="M15.234 8.32104H15.1347V8.42041H15.234V8.32104ZM15.234 8.16547L15.1607 8.09846L15.1347 8.12692V8.16547H15.234ZM15.8183 7.52589L15.745 7.4588L15.7449 7.45887L15.8183 7.52589ZM15.9877 7.33056L16.0652 7.39273L16.0655 7.39233L15.9877 7.33056ZM16.0862 7.17326L15.9953 7.1331L15.9951 7.1336L16.0862 7.17326ZM16.0741 6.85606L15.9906 6.90995L15.9911 6.91069L16.0741 6.85606ZM15.9531 6.75061L15.9963 6.66115H15.9963L15.9531 6.75061ZM15.6022 6.7558L15.6502 6.8428L15.6505 6.84261L15.6022 6.7558ZM15.4855 6.87248L15.3985 6.82448L15.3981 6.82525L15.4855 6.87248ZM15.4449 7.0488V7.14816H15.5443V7.0488H15.4449ZM15.2409 7.0488H15.1416V7.14816H15.2409V7.0488ZM15.3127 6.77568L15.3975 6.82744L15.3975 6.82744L15.3127 6.77568ZM15.508 6.59245L15.4616 6.50457L15.4614 6.50471L15.508 6.59245ZM16.0629 6.59245L16.1105 6.50526L16.0629 6.59245ZM16.2513 6.76963L16.1666 6.82152L16.2513 6.76963ZM16.2841 7.20869L16.1912 7.17343L16.1911 7.1739L16.2841 7.20869ZM16.1631 7.41526L16.0839 7.35526L16.0839 7.35535L16.1631 7.41526ZM15.9255 7.69183L15.998 7.75969L15.9982 7.75955L15.9255 7.69183ZM15.5279 8.11707L15.4553 8.04921L15.4285 8.07786V8.11707H15.5279ZM15.5279 8.1309H15.4285V8.23026H15.5279V8.1309ZM16.3507 8.1309H16.45V8.03154H16.3507V8.1309ZM16.3507 8.32104V8.42041H16.45V8.32104H16.3507ZM15.3334 8.32104V8.16547H15.1347V8.32104H15.3334ZM15.3074 8.23249L15.8916 7.59291L15.7449 7.45887L15.1607 8.09846L15.3074 8.23249ZM15.8916 7.59298C15.961 7.5171 16.019 7.45027 16.0652 7.39273L15.9102 7.26839C15.8676 7.32147 15.8127 7.38487 15.745 7.4588L15.8916 7.59298ZM16.0655 7.39233C16.1136 7.33179 16.1516 7.27195 16.1773 7.21291L15.9951 7.1336C15.9782 7.17251 15.9505 7.21754 15.9099 7.26878L16.0655 7.39233ZM16.1771 7.21341C16.2046 7.15121 16.2184 7.08568 16.2184 7.01768H16.0197C16.0197 7.05801 16.0116 7.09619 15.9953 7.1331L16.1771 7.21341ZM16.2184 7.01768C16.2184 6.93887 16.1992 6.86538 16.1571 6.80143L15.9911 6.91069C16.0089 6.93777 16.0197 6.97203 16.0197 7.01768H16.2184ZM16.1576 6.80217C16.1178 6.74052 16.0632 6.69344 15.9963 6.66115L15.9099 6.84008C15.9456 6.85734 15.9717 6.88056 15.9906 6.90995L16.1576 6.80217ZM15.9963 6.66115C15.93 6.6291 15.8573 6.61409 15.7802 6.61409V6.81281C15.8311 6.81281 15.8737 6.82258 15.9099 6.84008L15.9963 6.66115ZM15.7802 6.61409C15.6983 6.61409 15.6217 6.63121 15.5539 6.66899L15.6505 6.84261C15.6841 6.82392 15.7263 6.81281 15.7802 6.81281V6.61409ZM15.5542 6.6688C15.4877 6.70552 15.4352 6.75793 15.3985 6.82448L15.5725 6.92048C15.5911 6.88677 15.6165 6.8614 15.6502 6.8428L15.5542 6.6688ZM15.3981 6.82525C15.3619 6.89233 15.3455 6.96791 15.3455 7.0488H15.5443C15.5443 6.99485 15.555 6.95288 15.5729 6.91971L15.3981 6.82525ZM15.4449 6.94943H15.2409V7.14816H15.4449V6.94943ZM15.3403 7.0488C15.3403 6.96092 15.3604 6.88826 15.3975 6.82744L15.2278 6.72392C15.1693 6.81982 15.1416 6.92924 15.1416 7.0488H15.3403ZM15.3975 6.82744C15.4359 6.76453 15.4877 6.71577 15.5546 6.68019L15.4614 6.50471C15.3635 6.55671 15.2851 6.6301 15.2278 6.72392L15.3975 6.82744ZM15.5544 6.68032C15.6217 6.6448 15.6986 6.62612 15.7872 6.62612V6.4274C15.6695 6.4274 15.5603 6.45251 15.4616 6.50457L15.5544 6.68032ZM15.7872 6.62612C15.8765 6.62612 15.9516 6.64486 16.0152 6.67963L16.1105 6.50526C16.0139 6.45245 15.9052 6.4274 15.7872 6.4274V6.62612ZM16.0152 6.67963C16.0808 6.7155 16.1305 6.7627 16.1666 6.82152L16.336 6.71774C16.281 6.6279 16.2051 6.55697 16.1105 6.50526L16.0152 6.67963ZM16.1666 6.82152C16.2021 6.87952 16.2202 6.9441 16.2202 7.01768H16.4189C16.4189 6.90918 16.3915 6.8084 16.336 6.71774L16.1666 6.82152ZM16.2202 7.01768C16.2202 7.07047 16.2107 7.12221 16.1912 7.17343L16.377 7.24396C16.4048 7.17072 16.4189 7.09511 16.4189 7.01768H16.2202ZM16.1911 7.1739C16.1725 7.22346 16.1381 7.28376 16.0839 7.35526L16.2423 7.47526C16.3034 7.39465 16.3496 7.31723 16.3772 7.24348L16.1911 7.1739ZM16.0839 7.35535C16.0297 7.42705 15.953 7.51647 15.8527 7.62412L15.9982 7.75955C16.1007 7.64939 16.1825 7.55444 16.2424 7.47517L16.0839 7.35535ZM15.8529 7.62398L15.4553 8.04921L15.6005 8.18493L15.998 7.75969L15.8529 7.62398ZM15.4285 8.11707V8.1309H15.6272V8.11707H15.4285ZM15.5279 8.23026H16.3507V8.03154H15.5279V8.23026ZM16.2513 8.1309V8.32104H16.45V8.1309H16.2513ZM16.3507 8.22168H15.234V8.42041H16.3507V8.22168Z" fill="#F4F4F4"/>
</svg>
