<svg width="24" height="24" viewBox="0 0 24 24" fill="none" xmlns="http://www.w3.org/2000/svg">
<path d="M14.2057 12H15.0327C15.1988 12 15.3335 12.1514 15.3335 12.3381V14.519C15.3335 14.7058 15.1988 14.8571 15.0327 14.8571H14.2057C14.0396 14.8571 13.9049 14.7058 13.9049 14.519V12.3381C13.9049 12.1514 14.0396 12 14.2057 12Z" fill="#F4F4F4"/>
<path d="M18.4187 9.14282H17.4864C17.3494 9.14282 17.2383 9.28446 17.2383 9.4592V14.5407C17.2383 14.7155 17.3494 14.8571 17.4864 14.8571H18.4187C18.5558 14.8571 18.6669 14.7155 18.6669 14.5407V9.4592C18.6669 9.28446 18.5558 9.14282 18.4187 9.14282Z" fill="#F4F4F4"/>
<path d="M21.1403 7.23804H20.4787C20.2669 7.23804 20.0952 7.44814 20.0952 7.70732V14.3878C20.0952 14.647 20.2669 14.8571 20.4787 14.8571H21.1403C21.3521 14.8571 21.5238 14.647 21.5238 14.3878V7.70732C21.5238 7.44814 21.3521 7.23804 21.1403 7.23804Z" fill="#F4F4F4"/>
<path d="M12.5141 16.1524C11.7903 16.5619 10.9712 16.819 10.076 16.819C7.3522 16.819 5.14267 14.6095 5.14267 11.8857C5.14267 9.16188 7.3522 6.95235 10.076 6.95235C11.2093 6.95235 11.7808 7.19045 12.9998 7.9333L14.2379 6.95235L12.3046 5.95235L11.5141 4.12378H8.73315L7.96172 5.86664L6.05696 7.00949L4.1522 6.79997L2.74268 9.19045L3.84744 10.8095L3.82839 13.0285L2.7522 14.5619L4.12363 16.9524L6.02839 16.7904L7.89505 17.8952L8.7903 19.6571H11.4665L12.2951 17.8476L14.2474 16.8286L12.5236 16.1428L12.5141 16.1524Z" stroke="#F4F4F4" stroke-linecap="round" stroke-linejoin="round"/>
<path d="M12.4761 9.73325L12.7713 10.1713L15.8856 8.42848L17.6856 7.22848L19.9046 5.41897V6.19039L20.5142 6.16182V4.38086H18.6189V4.92372H19.5808L18.8475 5.62849L17.7046 6.5142L16.2951 7.4761L14.9237 8.28563L13.6189 9.09516L12.4761 9.73325Z" fill="#F4F4F4"/>
</svg>
